# xmcd CD database file
# Copyright (C) 1993-1998 Ti Kan
# 
# Track frame offsets:
#     150
#     14727
#     29302
#     46122
#     60280
#     84792
#     100212
#     114625
#     127067
#     143795
# 
# Disc length: 2225 seconds
# 
# Revision: 1
# Processed by: cddbd v1.4b41PL1 Copyright (c) Steve Scherf et al.
# Submitted via: DiscPlay 4.0.4
# 
DISCID=7c08af0a
DTITLE=String Of Pearls - String Of Pearls
DYEAR=1900
DGENRE=
TTITLE0=It Don't Mean A Thing
TTITLE1=Chattanooga Choo Choo
TTITLE2=Hit Me With A Hot Note
TTITLE3=Shakin' The Blues Away
TTITLE4=The Nearness Of You
TTITLE5=This Joint Is Jumpin'
TTITLE6=Straighten Up and Fly Right
TTITLE7=Secret Love
TTITLE8=Don't Fence Me In
TTITLE9=Verse For Katheryne/Cry Me A River
EXTD=
EXTT0=
EXTT1=
EXTT2=
EXTT3=
EXTT4=
EXTT5=
EXTT6=
EXTT7=
EXTT8=
EXTT9=
PLAYORDER=
